<svg xmlns="http://www.w3.org/2000/svg" xmlns:xlink="http://www.w3.org/1999/xlink" viewBox="0 0 1063 1891"><defs><style>.cls-1,.cls-8,.cls-9{fill:none;}.cls-2{clip-path:url(#clip-path);}.cls-3{fill:#f1ffd7;}.cls-3,.cls-4{stroke:#fffff6;}.cls-3,.cls-4,.cls-8,.cls-9{stroke-miterlimit:10;}.cls-4{fill:#fffdc5;}.cls-5{fill:url(#名称未設定グラデーション_40);}.cls-6{opacity:0.41;}.cls-7{fill:#fff;}.cls-8{stroke:#e15f00;}.cls-8,.cls-9{stroke-width:3px;}.cls-9{stroke:#a4009f;}</style><clipPath id="clip-path"><rect class="cls-1" x="2487.45" y="189" width="1063" height="1513"/></clipPath><linearGradient id="名称未設定グラデーション_40" x1="531.5" y1="97.35" x2="531.5" y2="1754.99" gradientUnits="userSpaceOnUse"><stop offset="0" stop-color="#ffecd4"/><stop offset="1" stop-color="#ffb5aa"/></linearGradient></defs><title>発注画面</title><g id="レイヤー_1" data-name="レイヤー 1"><g class="cls-2"><polygon class="cls-3" points="616.45 1945 582.45 1945 3224.45 -697 3258.45 -697 616.45 1945"/><polygon class="cls-3" points="701.49 1945 667.49 1945 3309.49 -697 3343.49 -697 701.49 1945"/><polygon class="cls-4" points="786.53 1945 752.53 1945 3394.53 -697 3428.53 -697 786.53 1945"/><polygon class="cls-4" points="871.57 1945 837.57 1945 3479.57 -697 3513.57 -697 871.57 1945"/><polygon class="cls-4" points="956.61 1945 922.61 1945 3564.61 -697 3598.61 -697 956.61 1945"/><polygon class="cls-4" points="1041.65 1945 1007.65 1945 3649.65 -697 3683.65 -697 1041.65 1945"/></g></g><g id="レイヤー_2" data-name="レイヤー 2"><rect class="cls-5" width="1063" height="1891"/><g class="cls-6"><path class="cls-7" d="M146.2,902.52v60.42s54.26-16.44,171.1-19.05V902.52Z"/><path class="cls-7" d="M146.2,982.15v75.63c3.8-.62,88.71-34.42,171.1-41.79V965.77S200.52,979.79,146.2,982.15Z"/><path class="cls-7" d="M146.2,1077.58v146s75.47-77,169.78-114.8l1.32-72.63S251.35,1060.14,146.2,1077.58Z"/><path class="cls-7" d="M494.17,904.77l-155.45-2.25s4.63,89.3,0,199.35c0,0,56.37-29.38,151.93-36.7C490.65,1065.17,483.16,945.29,494.17,904.77Zm-47,104.86c-41.28-1-66.26,6.36-66.26,6.36,3-9,0-24.76,0-24.76l66.26-1.34C446.86,994.91,447.19,1009.63,447.19,1009.63Zm1.68-50.53H380.93c2.34-6.69,0-19.74,0-19.74h67.94C446.52,943,448.87,959.1,448.87,959.1Z"/><path class="cls-7" d="M511.64,931.07h20.22s-.49-25.72-4.83-28.55h42.8s-9,15.26-8.36,28.55l17.06-1.42-3,24.6H559.8v33.18l19.53-7.64v36.66L511.64,1060v-56.12l20.22-8.19V957.08s-17.88,2.54-20.22,5.09Z"/><path class="cls-7" d="M586.22,924.85l-5.35,29.4h30.76s2.29,52-60.92,84.88l40,28.2S617,1052.38,635,989.89h31.77l-4.68,26.1s1.34,9.23-26.08,6.12c0,0,15.66,12.73-1.23,52.3,0,0,43.86,11.49,50.82,13,0,0,11-2.1,17.63-26,0,0,13-54.57,10.7-84.82,0,0,2-8.77-15.72-10.46H641.73s2.34-8.77,2.34-13.57h70.18l7.08-30H663.47s-.67-20.06,4-20.06H624s5,14.41,0,21.2Z"/><path class="cls-7" d="M712.06,974s27.52-11.68,26.24-71.44h44.49l9.07,7.36S778.73,958,712.06,974Z"/><path class="cls-7" d="M915.09,991.6V953.72s-52.51-39.87-119.48-15.48c0,0-34.69,11.58-36.5,51,0,0-2.34,26.78,34.83,47.21,0,0,61.73,26.12,66.06,39.59,0,0,6.09,18-10.3,14.41,0,0-73.44-25-110.9-68.88l-17.47,78.39s108,38.34,193.76,125.08l1.7-161.24s3-21.73-79.88-63.37c0,0-22.28-10.16-18.62-22.89,2.35-8.21,7.13-13.75,24.2-12.41C842.49,965.09,865.84,964.44,915.09,991.6Z"/></g><path d="M206.78,433.84h-2.5a2.53,2.53,0,0,1-2.8-2.8V387.29a87.61,87.61,0,0,1-5.11,8.91c-1.3,1.9-3.1,1.7-3.9-.5l-.8-2a3.71,3.71,0,0,1,.3-3.8c6.61-11.32,11.71-25.53,14.71-41.84a2.49,2.49,0,0,1,3.31-2.31l2.5.6c1.8.4,2.6,1.5,2.2,3.21a147.36,147.36,0,0,1-5.1,20V431A2.54,2.54,0,0,1,206.78,433.84ZM269,374a2.53,2.53,0,0,1-2.8,2.8H246.72v48.05h17.42a2.53,2.53,0,0,1,2.8,2.8,2.47,2.47,0,0,1-2.8,2.71H217.49a2.54,2.54,0,0,1-2.8-2.81c0-1.8,1-2.7,2.8-2.7H238V376.78H215.49a2.8,2.8,0,0,1,0-5.6H238V349.46a2.54,2.54,0,0,1,2.81-2.81h3.1a2.53,2.53,0,0,1,2.8,2.81v21.72h19.52A2.53,2.53,0,0,1,269,374Z"/><path d="M363.74,390v10.31h3a2.53,2.53,0,0,1,2.8,2.8c0,1.3-1,2-2.8,2h-3V421a2.53,2.53,0,0,1-2.81,2.8H358a2.53,2.53,0,0,1-2.8-2.8v-2.61H335.81v5.41c0,7.91-1.4,9.11-11.61,9.11-2.2,0-5.71-.1-10.41-.4a2.71,2.71,0,0,1-2.81-2.91c0-1.4,1.11-2.1,3-2,3.2.2,4.6.2,6.8.2,4.71,0,6-.8,6-3.5v-5.91H299.47a2.53,2.53,0,0,1-2.8-2.8c0-1,1-1.6,2.8-1.6H326.8v-8.91H295.87a2.53,2.53,0,0,1-2.8-2.8c0-1.3,1-2,2.8-2H326.8V391.8H299.47a2.53,2.53,0,0,1-2.8-2.8c0-1.21,1-1.81,2.8-1.81H326.8v-6.9H302.68a2.54,2.54,0,0,1-2.81-2.81v-12a2.53,2.53,0,0,1,2.81-2.8H326.8v-6.91h-30A2.53,2.53,0,0,1,294,353c0-1.3,1-2,2.8-2h30v-3.91a2.53,2.53,0,0,1,2.8-2.8H333a2.53,2.53,0,0,1,2.8,2.8V351h30a2.53,2.53,0,0,1,2.8,2.8c0,1.3-1,2-2.8,2h-30v6.91h24.12a2.54,2.54,0,0,1,2.81,2.8v12a2.54,2.54,0,0,1-2.81,2.81H335.81v6.9h25.12A2.54,2.54,0,0,1,363.74,390Zm-55.36-13.82H326.8v-9.11H308.38Zm27.43,0h18.42v-9.11H335.81Zm0,24.13h19.42V391.8H335.81Zm0,13.71h19.42v-8.91H335.81Z"/><path d="M465.13,388.09c-9.3,2.51-16,4.81-23.42,7.51a131.9,131.9,0,0,1,1,15.92,2.42,2.42,0,0,1-2.4,2.8h-4.1a2.22,2.22,0,0,1-2.51-2.6c.2-5.81.3-9.51.3-12.92-1,.51-7.5,4-11.11,10.31-4.2,7.61-1,12.72,6.41,14a41.18,41.18,0,0,0,13.11,0c3.81-.5,7.61-1.2,12.52-2.1a2.34,2.34,0,0,1,2.9,2.3v4.2a2.41,2.41,0,0,1-2.2,2.71c-9.81,1.6-18.72,2.7-27.73.8-4.61-1-10.31-3.11-12.81-8.81s-.8-12.21,3.1-17c7.71-9.71,14.21-12.41,15-12.71-.5-5-2.2-9.31-5.2-9.81-8.61-1.5-17,9.81-23.62,20.32a2.16,2.16,0,0,1-3.51.7l-2.8-2.1a2.37,2.37,0,0,1-.5-3.51,260.78,260.78,0,0,0,20.12-34.33h-17a2.27,2.27,0,0,1-2.5-2.5v-.1a2.27,2.27,0,0,1,2.5-2.5h19.42c1.9-4.41,4.41-9.91,5.71-13a2.21,2.21,0,0,1,3.3-1.3l3.7,1.6c1.5.6,1.9,1.8,1.2,3.31-.9,2-2.5,5.3-4.5,9.41h27.33a2.27,2.27,0,0,1,2.5,2.5v.1a2.27,2.27,0,0,1-2.5,2.5H426.9c-2.5,5-5.61,10.91-8.91,17,5.8-6.41,18.62-6.41,22.42,8.51A234.58,234.58,0,0,1,463.53,380a2.1,2.1,0,0,1,3.11,1.6l.9,3.3C467.94,386.49,467,387.59,465.13,388.09Z"/><path d="M506,433.84h-2.8a2.53,2.53,0,0,1-2.8-2.8V389.6a60.82,60.82,0,0,1-4.2,7.4c-1.31,2.1-3,1.8-3.81-.4l-1.1-3.4a4.25,4.25,0,0,1,.3-3.8c6.41-11.22,11.21-25.23,14.31-41.34.31-1.91,1.51-2.71,3.31-2.21l2.6.6a2.56,2.56,0,0,1,2.2,3.21,154.65,154.65,0,0,1-5.2,20.52V431A2.53,2.53,0,0,1,506,433.84Zm62.27-53a138.48,138.48,0,0,1-14.62,17.51c4.11,11.42,9.51,20.52,15.42,27.33a3.18,3.18,0,0,1,.5,3.8l-.7,1.71c-.9,1.9-2.41,2.2-3.91.8-13.51-13.52-22.92-36.54-25.72-61.16a86.81,86.81,0,0,1-8.61,13.81v37.94c4.5-1.7,9.11-3.61,14.31-6.11,1.9-.9,3.21-.1,3.41,2a3.09,3.09,0,0,1-1.91,3.31,146.37,146.37,0,0,1-30.73,10.91,2.38,2.38,0,0,1-3.2-2.3c-.2-1.61.6-2.61,2.3-3,2.31-.6,4.81-1.3,7.61-2.1V393.8a84.79,84.79,0,0,1-7.61,6.71c-1.6,1.2-3.1.7-3.7-1.3l-.4-1.31a3,3,0,0,1,1.2-3.7c9-7.21,17.42-18.22,23.42-32.33H516.38a2.53,2.53,0,0,1-2.8-2.8c0-1.71,1-2.61,2.8-2.61H536.7V347a2.54,2.54,0,0,1,2.81-2.8h3.1a2.53,2.53,0,0,1,2.8,2.8v9.51h21.32a2.54,2.54,0,0,1,2.81,2.81c0,1.7-1,2.6-2.81,2.6H546.31a166.19,166.19,0,0,0,5,29.33,144,144,0,0,0,11.51-15.12c1.1-1.7,2.6-1.8,4-.4l1.11,1.2A2.93,2.93,0,0,1,568.24,380.79Z"/><path d="M594.66,394.3V371.78a2.53,2.53,0,0,1,2.8-2.8h10.71V358.77H594.66a2.54,2.54,0,0,1-2.8-2.81c0-1.5,1-2.3,2.8-2.3h13.51v-6.11a2.54,2.54,0,0,1,2.81-2.8h2.7a2.53,2.53,0,0,1,2.8,2.8v6.11h10.81a2.53,2.53,0,0,1,2.81,2.8c0,1.5-1,2.31-2.81,2.31H616.48V369H627a2.54,2.54,0,0,1,2.81,2.8V394.3a2.54,2.54,0,0,1-2.81,2.8H616.38a72,72,0,0,0,13.92,15.52,3,3,0,0,1,.8,3.9l-.3.8c-.9,1.8-2.41,2.1-3.91.8a78.41,78.41,0,0,1-10.41-10.41V431a2.53,2.53,0,0,1-2.8,2.8H611a2.54,2.54,0,0,1-2.81-2.8V410.92a98.75,98.75,0,0,1-11.41,15c-1.4,1.6-3,1.3-3.9-.6l-.6-1.2a3,3,0,0,1,.5-3.7A84.52,84.52,0,0,0,608,397.1H597.46A2.53,2.53,0,0,1,594.66,394.3Zm8-2h5.5V373.78h-5.5Zm19.42,0V373.78h-5.61V392.3Zm24.42,29.83A50.66,50.66,0,0,1,632.8,433a2.49,2.49,0,0,1-3.81-1.1l-.29-.5c-.81-1.61-.41-2.81,1.1-3.81a47.12,47.12,0,0,0,11.41-10.11c1.3-1.6,2.7-1.6,4,0l.9,1.2C647.11,420.13,647.31,421.23,646.51,422.13ZM631.3,351c0-1.5,1-2.3,2.8-2.3h34a2.53,2.53,0,0,1,2.81,2.8c0,1.5-1,2.3-2.81,2.3H653.92c-.5,2.1-1,5.61-2,10.41h14a2.53,2.53,0,0,1,2.8,2.8v43.75a2.53,2.53,0,0,1-2.8,2.8H635.8a2.53,2.53,0,0,1-2.8-2.8V367a2.53,2.53,0,0,1,2.8-2.8h7.51c.6-2.7,1.3-6.31,2-10.41H634.1A2.53,2.53,0,0,1,631.3,351Zm9.91,27.93h19.22V368.78H641.21Zm0,4.4V393.7h19.22V383.29Zm19.22,25.42V398H641.21v10.71Zm5.3,23.83a94,94,0,0,0-11.31-10.21,2.79,2.79,0,0,1-.8-3.91l.3-.5c1-1.6,2.4-1.9,3.9-.8a82.46,82.46,0,0,1,12.42,10.51,2.93,2.93,0,0,1,.3,3.91l-.6.9C668.93,434.14,667.33,434.24,665.73,432.54Z"/><path d="M766.43,361.37v.1a2.27,2.27,0,0,1-2.5,2.5H743.31l-.2,19.82c2.6,5.81,2.9,12.91,2.2,19.42-2,17.32-13.92,26.73-28.13,29.83-1.6.4-2.6-.2-2.9-1.5s.3-2.21,1.8-2.71c10.81-3.7,19.12-10,20.82-22.32a9.64,9.64,0,0,1-5.3,3.11c-8,1.3-14.42-4-15.62-14.12-.9-8,3.5-16.61,11-18.82,2.9-.9,6.61-.6,8,.8V364H702.07a2.27,2.27,0,0,1-2.51-2.5v-.1a2.27,2.27,0,0,1,2.51-2.5H734.9V348.76a2.27,2.27,0,0,1,2.5-2.51H741a2.27,2.27,0,0,1,2.51,2.51l-.2,10.11h20.62A2.27,2.27,0,0,1,766.43,361.37Zm-37.64,20.52c-3.6,1.7-5.2,6.9-5.1,12.71.6,4.91,3,9.21,7.2,9.21,1.91-.3,3.51-1.6,4.81-3.7,2.8-4.61,2.3-13.72-1.6-17.12A4.73,4.73,0,0,0,728.79,381.89Z"/><path d="M852.91,353.06a3.23,3.23,0,0,1-1,3.3c-9.91,9.51-22.22,24.13-24.32,26.73,5.4-2.5,8.71-3.1,13.91-2.9,7.51.3,15.92,3.4,20.12,11.61s2.91,19.92-2.9,26.82a27.07,27.07,0,0,1-9.81,7.51,31.34,31.34,0,0,1-21.12,2.5c-5.61-1.4-12.51-5.1-13.31-13a11.34,11.34,0,0,1,7.4-11.61,13.59,13.59,0,0,1,6.21-.6c8,1.1,13.31,8.91,15.61,17.42a20.48,20.48,0,0,0,10.82-16.12c.6-5.61-1.61-12.51-5.71-16.12-6.81-5.8-17-2.6-24.62,2a48.32,48.32,0,0,0-15.32,15c-1,1.5-2.2,1.6-3.5.5L803,404a2.27,2.27,0,0,1-.2-3.5c8.51-9.91,35.44-41.54,37.64-44.05H810.57a2.27,2.27,0,0,1-2.5-2.5v-.1a2.39,2.39,0,0,1,2.5-2.6h39.64C851.81,351.26,852.61,351.86,852.91,353.06Zm-31.33,58.26a6.68,6.68,0,0,0,.6,7.3c3.41,4.51,9.61,4.81,13.82,3.61-1.2-6-4.51-11.81-8.91-13A4.43,4.43,0,0,0,821.58,411.32Z"/><path class="cls-8" d="M0,445.5H68v-20l11,41,21-95,14,142,11-83s21,20,10,15,769,0,769,0l9-39,15,78,18-103v61l117,3"/><polyline class="cls-9" points="-0.5 1584 114.5 1584 123.5 1636 137.5 1543 146.5 1620 169.5 1508 189.5 1663 200.5 1585 495.5 1585 504.5 1550 517.5 1620 531.5 1541 531.5 1586 772.5 1586 783.5 1612 796.5 1553 808.5 1610 828.5 1501 844.5 1663 858.5 1540 865.5 1588 901.5 1588 907.5 1582 915.5 1595 924.5 1582 933.5 1610 939.5 1582 1063.5 1582"/></g></svg>