<svg xmlns="http://www.w3.org/2000/svg" xmlns:xlink="http://www.w3.org/1999/xlink" viewBox="0 0 514 110"><defs><style>.cls-1{fill:url(#名称未設定グラデーション_41);}.cls-2{fill:#fff;}</style><linearGradient id="名称未設定グラデーション_41" y1="55" x2="514" y2="55" gradientUnits="userSpaceOnUse"><stop offset="0" stop-color="#e92d00"/><stop offset="1" stop-color="#d400c3"/></linearGradient></defs><title>発注画面</title><g id="レイヤー_2" data-name="レイヤー 2"><rect class="cls-1" width="514" height="110" rx="12" ry="12"/><path class="cls-2" d="M192.89,78.87c-11.3,0-17.77-9.08-17.77-24s6.47-24,17.77-24,17.77,9.08,17.77,24c0,7.51-1.31,13.07-4.64,17.71A15.69,15.69,0,0,1,192.89,78.87Zm0-44.61c-7.45,0-12,6.92-12,20.57s4.51,20.58,12,20.58,12-6.92,12-20.58c0-6.79-1.17-12.28-3.07-15.28C199.36,35.69,196.61,34.26,192.89,34.26Z"/><path class="cls-2" d="M225.42,78.22h-2.09a1.65,1.65,0,0,1-1.83-1.83V47a1.65,1.65,0,0,1,1.83-1.82h1.83A1.65,1.65,0,0,1,227,47v3.6a14.37,14.37,0,0,1,11.43-5.42A1.6,1.6,0,0,1,240.18,47c0,1-.65,1.64-1.83,1.64h.07c-6.93,0-11.17,4.77-11.17,14V76.39A1.66,1.66,0,0,1,225.42,78.22Z"/><path class="cls-2" d="M271.4,30.14h1.9A1.66,1.66,0,0,1,275.13,32V76.39a1.66,1.66,0,0,1-1.83,1.83h-1.63a1.65,1.65,0,0,1-1.83-1.83V75a11.15,11.15,0,0,1-8.56,3.85c-7.25,0-11.95-6.79-11.95-17.18,0-10.71,4.44-17.18,11.95-17.18a11.32,11.32,0,0,1,8.3,3.53V32A1.65,1.65,0,0,1,271.4,30.14Zm-9.21,17.38c-4.57,0-7.38,4.7-7.38,14.17s3,14.18,7.38,14.18c3.53,0,7.39-4.05,7.39-9.15V56.66C269.58,51.63,265.85,47.52,262.19,47.52Z"/><path class="cls-2" d="M300.67,76a16,16,0,0,0,6.53-1.57c1.31-.65,2.16-.13,2.16,1.31a1.81,1.81,0,0,1-1.44,1.83,24.33,24.33,0,0,1-7.64,1.3c-9.41,0-14.18-6-14.18-17.18,0-11.49,4.77-17.18,13.07-17.18s12,5.82,12,16.72a3.28,3.28,0,0,1-.06.66c0,.39-.59.65-1.76.65H291.65C291.78,71.82,294.92,76,300.67,76Zm-1.5-28.61c-4.58,0-7.19,3.78-7.52,12.21h14.11C305.76,51.24,303.28,47.39,299.17,47.39Z"/><path class="cls-2" d="M325.36,78.22h-2.09a1.65,1.65,0,0,1-1.83-1.83V47a1.65,1.65,0,0,1,1.83-1.82h1.83A1.65,1.65,0,0,1,326.93,47v3.6a14.37,14.37,0,0,1,11.43-5.42A1.6,1.6,0,0,1,340.12,47c0,1-.65,1.64-1.83,1.64h.07c-6.93,0-11.17,4.77-11.17,14V76.39A1.66,1.66,0,0,1,325.36,78.22Z"/></g></svg>