<svg xmlns="http://www.w3.org/2000/svg" xmlns:xlink="http://www.w3.org/1999/xlink" viewBox="0 0 1063 3687"><defs><style>.cls-1{fill:url(#名称未設定グラデーション_40);}.cls-2{opacity:0.41;}.cls-3{fill:#fff;}.cls-4{fill:none;stroke:#e15f00;stroke-miterlimit:10;stroke-width:3px;}.cls-5{font-size:101.2px;font-family:07LogoTypeGothic-Condense-83pv-RKSJ-H, 07LogoTypeGothic-Condense;}</style><linearGradient id="名称未設定グラデーション_40" x1="531.5" y1="189.8" x2="531.5" y2="3421.81" gradientUnits="userSpaceOnUse"><stop offset="0" stop-color="#ffecd4"/><stop offset="1" stop-color="#ffb5aa"/></linearGradient></defs><title>確認画面</title><g id="レイヤー_2" data-name="レイヤー 2"><rect class="cls-1" width="1063" height="3687"/><g class="cls-2"><path class="cls-3" d="M146.2,902.52v60.42s54.26-16.44,171.1-19.05V902.52Z"/><path class="cls-3" d="M146.2,982.15v75.63c3.8-.62,88.71-34.42,171.1-41.79V965.77S200.52,979.79,146.2,982.15Z"/><path class="cls-3" d="M146.2,1077.58v146s75.47-77,169.78-114.8l1.32-72.63S251.35,1060.14,146.2,1077.58Z"/><path class="cls-3" d="M494.17,904.77l-155.45-2.25s4.63,89.3,0,199.35c0,0,56.37-29.38,151.93-36.7C490.65,1065.17,483.16,945.29,494.17,904.77Zm-47,104.86c-41.28-1-66.26,6.36-66.26,6.36,3-9,0-24.76,0-24.76l66.26-1.34C446.86,994.91,447.19,1009.63,447.19,1009.63Zm1.68-50.53H380.93c2.34-6.69,0-19.74,0-19.74h67.94C446.52,943,448.87,959.1,448.87,959.1Z"/><path class="cls-3" d="M511.64,931.07h20.22s-.49-25.72-4.83-28.55h42.8s-9,15.26-8.36,28.55l17.06-1.42-3,24.6H559.8v33.18l19.53-7.64v36.66L511.64,1060v-56.12l20.22-8.19V957.08s-17.88,2.54-20.22,5.09Z"/><path class="cls-3" d="M586.22,924.85l-5.35,29.4h30.76s2.29,52-60.92,84.88l40,28.2S617,1052.38,635,989.89h31.77l-4.68,26.1s1.34,9.23-26.08,6.12c0,0,15.66,12.73-1.23,52.3,0,0,43.86,11.49,50.82,13,0,0,11-2.1,17.63-26,0,0,13-54.57,10.7-84.82,0,0,2-8.77-15.72-10.46H641.73s2.34-8.77,2.34-13.57h70.18l7.08-30H663.47s-.67-20.06,4-20.06H624s5,14.41,0,21.2Z"/><path class="cls-3" d="M712.06,974s27.52-11.68,26.24-71.44h44.49l9.07,7.36S778.73,958,712.06,974Z"/><path class="cls-3" d="M915.09,991.6V953.72s-52.51-39.87-119.48-15.48c0,0-34.69,11.58-36.5,51,0,0-2.34,26.78,34.83,47.21,0,0,61.73,26.12,66.06,39.59,0,0,6.09,18-10.3,14.41,0,0-73.44-25-110.9-68.88l-17.47,78.39s108,38.34,193.76,125.08l1.7-161.24s3-21.73-79.88-63.37c0,0-22.28-10.16-18.62-22.89,2.35-8.21,7.13-13.75,24.2-12.41C842.49,965.09,865.84,964.44,915.09,991.6Z"/></g><g class="cls-2"><path class="cls-3" d="M146.2,2536.52v60.42s54.26-16.44,171.1-19.05v-41.37Z"/><path class="cls-3" d="M146.2,2616.15v75.63c3.8-.62,88.71-34.42,171.1-41.79v-50.22S200.52,2613.79,146.2,2616.15Z"/><path class="cls-3" d="M146.2,2711.58v146s75.47-77,169.78-114.8l1.32-72.63S251.35,2694.14,146.2,2711.58Z"/><path class="cls-3" d="M494.17,2538.77l-155.45-2.25s4.63,89.3,0,199.35c0,0,56.37-29.38,151.93-36.7C490.65,2699.17,483.16,2579.29,494.17,2538.77Zm-47,104.86c-41.28-1-66.26,6.36-66.26,6.36,3-9,0-24.76,0-24.76l66.26-1.34C446.86,2628.91,447.19,2643.63,447.19,2643.63Zm1.68-50.53H380.93c2.34-6.69,0-19.74,0-19.74h67.94C446.52,2577,448.87,2593.1,448.87,2593.1Z"/><path class="cls-3" d="M511.64,2565.07h20.22s-.49-25.72-4.83-28.55h42.8s-9,15.26-8.36,28.55l17.06-1.42-3,24.6H559.8v33.18l19.53-7.64v36.66L511.64,2694v-56.12l20.22-8.19v-38.61s-17.88,2.54-20.22,5.09Z"/><path class="cls-3" d="M586.22,2558.85l-5.35,29.4h30.76s2.29,52-60.92,84.88l40,28.2s26.3-14.95,44.35-77.44h31.77l-4.68,26.1s1.34,9.23-26.08,6.12c0,0,15.66,12.73-1.23,52.3,0,0,43.86,11.49,50.82,13.05,0,0,11-2.1,17.63-26.05,0,0,13-54.57,10.7-84.82,0,0,2-8.77-15.72-10.46H641.73s2.34-8.77,2.34-13.57h70.18l7.08-30H663.47s-.67-20.06,4-20.06H624s5,14.41,0,21.2Z"/><path class="cls-3" d="M712.06,2608s27.52-11.68,26.24-71.44h44.49l9.07,7.36S778.73,2592,712.06,2608Z"/><path class="cls-3" d="M915.09,2625.6v-37.88s-52.51-39.87-119.48-15.48c0,0-34.69,11.58-36.5,51,0,0-2.34,26.78,34.83,47.21,0,0,61.73,26.12,66.06,39.59,0,0,6.09,18-10.3,14.41,0,0-73.44-25-110.9-68.88l-17.47,78.39s108,38.34,193.76,125.08l1.7-161.24s3-21.73-79.88-63.37c0,0-22.28-10.16-18.62-22.89,2.35-8.21,7.13-13.75,24.2-12.41C842.49,2599.09,865.84,2598.44,915.09,2625.6Z"/></g><path class="cls-4" d="M0,445.5H68v-20l11,41,21-95,14,142,11-83s21,20,10,15,769,0,769,0l9-39,15,78,18-103v61l117,3"/><text class="cls-5" transform="translate(177.29 425.23)">仕事を確認する</text></g></svg>