<!--?xml version="1.0" encoding="utf-8"?-->
<!-- Generator: Adobe Illustrator 15.1.0, SVG Export Plug-In . SVG Version: 6.00 Build 0)  -->

<svg version="1.1" id="_x32_" xmlns="http://www.w3.org/2000/svg" xmlns:xlink="http://www.w3.org/1999/xlink" x="0px" y="0px" width="512px" height="512px" viewBox="0 0 512 512" style="width: 256px; height: 256px; opacity: 1;" xml:space="preserve">
<style type="text/css">

	.st0{fill:#4B4B4B;}

</style>
<g>
	<path class="st0" d="M309.791,34.21c5.422,5.422,5.422,14.203,0,19.625L87.135,276.492c-5.422,5.422-14.203,5.422-19.641,0
		L4.057,213.054c-5.406-5.422-5.406-14.203,0-19.625L153.025,44.46c1.828-1.828,4.141-3.125,6.656-3.703l119.531-27.859
		c4.672-1.094,9.578,0.297,12.953,3.703L309.791,34.21z" style="fill: rgb(75, 75, 75);"></path>
	<path class="st0" d="M507.932,432.179c5.422,5.422,5.422,14.203,0,19.625l-43.609,43.609c-5.406,5.406-14.203,5.406-19.625,0
		L196.088,246.789c-5.422-5.422-5.422-14.203,0-19.625l43.609-43.609c5.406-5.406,14.188-5.406,19.609,0L507.932,432.179z" style="fill: rgb(75, 75, 75);"></path>
	<path class="st0" d="M108.697,32.945c5.422,5.422,5.422,14.203,0,19.625L65.104,96.179c-5.422,5.406-14.219,5.422-19.641,0
		l-14.984-15c-5.422-5.406-5.422-14.203,0-19.609L74.088,17.96c5.422-5.422,14.203-5.422,19.625,0L108.697,32.945z" style="fill: rgb(75, 75, 75);"></path>
</g>
</svg>
